<?xml version="1.0" standalone="no"?>
<!DOCTYPE svg PUBLIC "-//W3C//DTD SVG 20010904//EN"
 "http://www.w3.org/TR/2001/REC-SVG-20010904/DTD/svg10.dtd">
<svg version="1.0" xmlns="http://www.w3.org/2000/svg"
 width="440.000000pt" height="438.000000pt" viewBox="0 0 440.000000 438.000000"
 preserveAspectRatio="xMidYMid meet">
<metadata>
Created by potrace 1.15, written by Peter Selinger 2001-2017
</metadata>
<g transform="translate(0.000000,438.000000) scale(0.100000,-0.100000)"
fill="#000000" stroke="none">
<path d="M800 2210 l0 -1820 1390 0 1390 0 0 1513 0 1512 -306 308 -306 307
-1084 0 -1084 0 0 -1820z m2385 1410 l290 -290 -293 0 -292 0 0 290 c0 160 1
290 3 290 1 0 133 -130 292 -290z m-1516 -136 c82 -24 145 -91 166 -176 l7
-28 -65 0 c-62 0 -65 1 -77 29 -23 56 -55 76 -122 76 -56 0 -62 -2 -93 -37
-40 -44 -55 -91 -55 -178 1 -116 52 -190 137 -197 62 -5 109 22 130 77 l16 40
64 0 63 0 -6 -27 c-32 -133 -148 -214 -286 -199 -139 14 -230 115 -245 270 -6
70 9 171 34 221 60 118 194 170 332 129z m610 0 c82 -24 145 -91 166 -176 l7
-28 -65 0 c-62 0 -65 1 -77 29 -23 56 -55 76 -122 76 -56 0 -62 -2 -93 -37
-40 -44 -55 -91 -55 -178 1 -116 52 -190 137 -197 62 -5 109 22 130 77 l16 40
64 0 63 0 -6 -27 c-32 -133 -148 -214 -286 -199 -139 14 -230 115 -245 270 -6
70 9 171 34 221 60 118 194 170 332 129z m761 -949 l0 -75 -850 0 -850 0 0 75
0 75 850 0 850 0 0 -75z m0 -650 l0 -75 -850 0 -850 0 0 75 0 75 850 0 850 0
0 -75z m0 -660 l0 -75 -850 0 -850 0 0 75 0 75 850 0 850 0 0 -75z"/>
</g>
</svg>
